<?xml version="1.0" standalone="no"?>
<!DOCTYPE svg PUBLIC "-//W3C//DTD SVG 20010904//EN"
 "http://www.w3.org/TR/2001/REC-SVG-20010904/DTD/svg10.dtd">
<svg version="1.0" xmlns="http://www.w3.org/2000/svg"
 width="752.000000pt" height="752.000000pt" viewBox="0 0 752.000000 752.000000"
 preserveAspectRatio="xMidYMid meet">
<metadata>
Created by potrace 1.14, written by Peter Selinger 2001-2017
</metadata>
<g transform="translate(0.000000,752.000000) scale(0.100000,-0.100000)"
fill="#000000" stroke="none">
<path d="M3570 5419 l0 -189 23 -1 c95 -4 152 -9 203 -18 32 -6 73 -13 90 -16
70 -11 215 -59 311 -102 478 -213 816 -659 899 -1183 10 -65 12 -335 3 -400
-16 -115 -19 -129 -39 -207 -49 -185 -119 -334 -245 -519 -55 -82 -265 -289
-355 -351 -218 -148 -452 -240 -680 -268 -30 -4 -64 -8 -75 -10 -11 -1 -46 -3
-77 -4 l-58 -1 0 -191 0 -191 98 6 c132 9 171 14 285 37 90 18 234 58 282 78
11 5 45 19 75 31 124 50 375 196 434 252 8 7 33 29 57 48 74 58 227 220 299
315 86 114 169 257 226 385 42 96 108 296 119 363 9 55 26 151 30 172 4 20 12
20 327 20 l323 0 0 190 0 190 -317 0 c-174 0 -319 3 -322 6 -3 3 -10 39 -16
80 -12 96 -21 153 -26 160 -2 3 -6 20 -9 39 -21 122 -150 428 -230 548 -19 30
-35 56 -35 58 0 5 -79 113 -90 124 -3 3 -17 21 -32 40 -82 109 -261 270 -413
372 -218 146 -455 244 -695 288 -30 6 -65 12 -78 15 -38 7 -142 17 -219 20
l-73 3 0 -189z"/>
<path d="M3450 4998 c-41 -4 -108 -15 -147 -23 -40 -9 -74 -16 -75 -15 -6 3
-157 -55 -218 -83 -328 -154 -580 -437 -694 -778 -19 -57 -40 -136 -47 -174
l-11 -70 -425 0 c-234 0 -429 -2 -434 -6 -6 -3 -8 -83 -7 -190 l3 -184 430 0
430 0 6 -25 c4 -14 19 -70 34 -125 29 -110 38 -132 97 -250 65 -128 134 -223
247 -335 210 -209 463 -336 753 -377 97 -14 336 -8 428 11 185 39 345 106 492
205 297 202 494 504 564 866 25 131 23 360 -5 485 -30 136 -28 131 -57 206
-172 460 -598 799 -1074 854 -120 14 -203 16 -290 8z m240 -382 c77 -9 202
-45 275 -80 164 -78 255 -154 393 -331 19 -24 71 -126 95 -187 38 -93 58 -196
62 -313 3 -90 -1 -131 -19 -230 -10 -53 -47 -157 -78 -220 -121 -240 -328
-411 -593 -491 -80 -24 -107 -27 -245 -28 -165 -1 -254 15 -375 67 -343 146
-569 475 -579 846 -3 117 7 193 40 301 57 188 175 360 327 477 125 97 320 176
469 190 35 3 64 6 65 7 4 3 115 -3 163 -8z"/>
</g>
</svg>
